<?xml version="1.0" standalone="no"?>
<!DOCTYPE svg PUBLIC "-//W3C//DTD SVG 20010904//EN"
 "http://www.w3.org/TR/2001/REC-SVG-20010904/DTD/svg10.dtd">
<svg version="1.0" xmlns="http://www.w3.org/2000/svg"
 width="729.000000pt" height="819.000000pt" viewBox="0 0 729.000000 819.000000"
 preserveAspectRatio="xMidYMid meet">

<g transform="translate(0.000000,819.000000) scale(0.100000,-0.100000)"
fill="#c4182f" stroke="none">
<path d="M3390 7774 c-935 -38 -1809 -226 -2639 -569 -235 -97 -276 -118 -295
-160 -14 -29 -16 -45 -8 -74 18 -67 3091 -6595 3117 -6621 36 -36 114 -36 150
1 26 25 3111 6579 3122 6630 3 16 -3 43 -13 64 -15 33 -30 44 -108 80 -50 24
-176 77 -281 118 -724 288 -1486 461 -2275 516 -158 11 -634 21 -770 15z
m2460 -1183 c0 -19 -121 -264 -157 -319 -94 -142 -266 -286 -421 -352 -140
-59 -214 -71 -474 -77 l-236 -5 -402 -857 c-221 -471 -422 -889 -447 -929 -58
-94 -184 -226 -275 -289 -209 -144 -390 -193 -715 -193 -95 0 -173 2 -173 4 0
2 237 507 526 1123 289 615 528 1124 531 1131 4 9 -105 12 -526 12 -292 0
-531 2 -531 5 0 2 34 73 75 157 50 103 95 179 138 234 152 191 393 325 636
354 94 11 2451 12 2451 1z"/>
</g>
</svg>
